{"title":"Dehraadun Diary (2013) 460Mb DVDScr Rip","uid":8034929,"size":483554241,"categoryP":"video","categoryS":"movies","magnet":"?xt=urn:btih:492820fde1fdc69e11b8f22724875456ab9ab31e&amp;dn=Dehraadun+Diary+%282013%29+460Mb+DVDScr+Rip&amp;tr=udp%3A%2F%2Ftracker.openbittorrent.com%3A80&amp;tr=udp%3A%2F%2Fopen.demonii.com%3A1337&amp;tr=udp%3A%2F%2Ftracker.coppersurfer.tk%3A6969&amp;tr=udp%3A%2F%2Fexodus.desync.com%3A6969","seeders":0,"leechers":1,"uploader":"shaan666","files":-1,"time":1358502728,"description":"Dehraadun Diary\n &lt;a href=&quot;\nhttp://www.shotpix.com/images/34383870803313132099.jpg&quot; rel=&quot;nofollow&quot; target=&quot;_NEW&quot;&gt;\nhttp://www.shotpix.com/images/34383870803313132099.jpg&lt;/a&gt;\n\n\n[B]INFO[/B]\n\n[code]In the era of large scale corruption, where everyone seated on a chair that holds power is neck deep in corruption, exist unlikely heroes.\nRelease Date\n4 Jan 2013\nGenre: Thriller\nProducer: Anitta Dhawan Nandwani\nYatin Nandwani\nStar Cast\nAdhyayan Suman.... Aakash Sharma\nRohit Bakhshi.... Anshul Sharma\nRagini Nandwani.... Priti Thakur\nAshwini Kalsekar.... Advocate Dipali\nRati Agnihotri.... Neelima Sharma\nNeelima Azim.... Mrs Thakur\nVishal Bhonsle.... Vishesh Thakur\nSunil Godse.... Lawyer\nGaurav Chopra.... Anshul's Friend\nKunwar Aziz.... MLA Sadgun Thakur\nStory / Writers: Aseem Arora\nLanguage: Hindi[/code]\n\n\n[code]General\nFormat                                   : Matroska\nFormat version                           : Version 2\nFile size                                : 461 MiB\nDuration                                 : 1h 35mn\nOverall bit rate                         : 676 Kbps\nMovie name                               : Dehraadun Diary 2013 DVDScr Hindi\n\nVideo\nID                                       : 1\nFormat                                   : MPEG-4 Visual\nFormat profile                           : Advanced Simple@L5\nFormat settings, BVOP                    : Yes\nFormat settings, QPel                    : No\nFormat settings, GMC                     : No warppoints\nFormat settings, Matrix                  : Default (H.263)\nCodec ID                                 : V_MS/VFW/FOURCC / XVID\nCodec ID/Hint                            : XviD\nDuration                                 : 1h 35mn\nBit rate                                 : 534 Kbps\nWidth                                    : 592 pixels\nHeight                                   : 272 pixels\nDisplay aspect ratio                     : 2.2:1\nFrame rate mode                          : Constant\nFrame rate                               : 25.000 fps\nColor space                              : YUV\nChroma subsampling                       : 4:2:0\nBit depth                                : 8 bits\nScan type                                : Progressive\nCompression mode                         : Lossy\nBits/(Pixel*Frame)                       : 0.133\nStream size                              : 365 MiB (79%)\nTitle                                    : Dehraadun Diary 2013 DVDScr Hindi\nLanguage                                 : Hindi\nDefault                                  : Yes\nForced                                   : No\n\nAudio\nID                                       : 2\nFormat                                   : MPEG Audio\nFormat version                           : Version 1\nFormat profile                           : Layer 3\nMode                                     : Joint stereo\nMode extension                           : MS Stereo\nMuxing mode                              : Header stripping\nCodec ID                                 : A_MPEG/L3\nCodec ID/Hint                            : MP3\nDuration                                 : 1h 35mn\nBit rate mode                            : Constant\nBit rate                                 : 128 Kbps\nChannel(s)                               : 2 channels\nSampling rate                            : 44.1 KHz\nCompression mode                         : Lossy\nStream size                              : 87.3 MiB (19%)\nTitle                                    : Dehraadun Diary 2013 DVDScr Hindi\nLanguage                                 : Hindi\nDefault                                  : Yes\nForced                                   : No\n\n\n\nSource:\ncredit to original movie ripper DesiHome (Thanks)[/code]\n\n\n\n\n\n[B]SCREEN SHOTS[/B]\n &lt;a href=&quot;\nhttp://www.shotpix.com/images/01435947695846182845.png&quot; rel=&quot;nofollow&quot; target=&quot;_NEW&quot;&gt;\nhttp://www.shotpix.com/images/01435947695846182845.png&lt;/a&gt;\n &lt;a href=&quot;\nhttp://www.shotpix.com/images/00420539718700405762.png&quot; rel=&quot;nofollow&quot; target=&quot;_NEW&quot;&gt;\nhttp://www.shotpix.com/images/00420539718700405762.png&lt;/a&gt;\n &lt;a href=&quot;\nhttp://www.shotpix.com/images/11226765877850892029.png&quot; rel=&quot;nofollow&quot; target=&quot;_NEW&quot;&gt;\nhttp://www.shotpix.com/images/11226765877850892029.png&lt;/a&gt;\n &lt;a href=&quot;\nhttp://www.shotpix.com/images/25379360059333086622.png&quot; rel=&quot;nofollow&quot; target=&quot;_NEW&quot;&gt;\nhttp://www.shotpix.com/images/25379360059333086622.png&lt;/a&gt;\n &lt;a href=&quot;\nhttp://www.shotpix.com/images/36645019362882289779.png&quot; rel=&quot;nofollow&quot; target=&quot;_NEW&quot;&gt;\nhttp://www.shotpix.com/images/36645019362882289779.png&lt;/a&gt;\n &lt;a href=&quot;\nhttp://www.shotpix.com/images/77551566103859276228.png&quot; rel=&quot;nofollow&quot; target=&quot;_NEW&quot;&gt;\nhttp://www.shotpix.com/images/77551566103859276228.png&lt;/a&gt;","torrent":{"xt":"urn:btih:492820fde1fdc69e11b8f22724875456ab9ab31e","amp;dn":"Dehraadun+Diary+%282013%29+460Mb+DVDScr+Rip","amp;tr":["udp%3A%2F%2Ftracker.openbittorrent.com%3A80","udp%3A%2F%2Fopen.demonii.com%3A1337","udp%3A%2F%2Ftracker.coppersurfer.tk%3A6969","udp%3A%2F%2Fexodus.desync.com%3A6969"],"infoHash":"492820fde1fdc69e11b8f22724875456ab9ab31e","infoHashBuffer":{"type":"Buffer","data":[73,40,32,253,225,253,198,158,17,184,242,39,36,135,84,86,171,154,179,30]},"announce":[],"urlList":[]}}